<svg id="Layer_1" data-name="Layer 1" xmlns="http://www.w3.org/2000/svg" viewBox="0 0 728 1115"><defs><style>.cls-1{fill:#202020;}.cls-2{fill:none;stroke:#515151;stroke-miterlimit:10;stroke-width:1.52px;stroke-dasharray:4.68 4.68;}.cls-3{fill:#515151;}.cls-13,.cls-16,.cls-4{font-size:37.37px;}.cls-4{fill:#b2b2b2;}.cls-13,.cls-4,.cls-8{font-family:NunitoSans-SemiBold, Nunito Sans;font-weight:700;}.cls-5{letter-spacing:0em;}.cls-6{letter-spacing:-0.02em;}.cls-7{fill:#f4f4f4;}.cls-8{font-size:34.3px;fill:#6b6b6b;}.cls-9{letter-spacing:0em;}.cls-10{letter-spacing:-0.02em;}.cls-11{letter-spacing:-0.04em;}.cls-12{letter-spacing:-0.01em;}.cls-14{letter-spacing:-0.02em;}.cls-15{letter-spacing:-0.08em;}.cls-16,.cls-21,.cls-25{font-family:NunitoSans-Light, Nunito Sans;}.cls-16{letter-spacing:-0.02em;}.cls-17{letter-spacing:-0.08em;}.cls-18{letter-spacing:0em;}.cls-19{fill:#cecece;}.cls-20{fill:#e2e2e2;}.cls-21{font-size:25.74px;}.cls-22{letter-spacing:-0.01em;}.cls-23{letter-spacing:-0.01em;}.cls-24{letter-spacing:-0.01em;}.cls-25{font-size:20.37px;}.cls-26{letter-spacing:-0.01em;}.cls-27{letter-spacing:0.01em;}.cls-28{letter-spacing:-0.08em;}.cls-29{letter-spacing:0em;}.cls-30{letter-spacing:-0.05em;}.cls-31{letter-spacing:-0.02em;}.cls-32{letter-spacing:-0.02em;}.cls-33{letter-spacing:-0.01em;}.cls-34{letter-spacing:0em;}.cls-35{letter-spacing:-0.02em;}.cls-36{letter-spacing:-0.01em;}.cls-37{letter-spacing:-0.08em;}</style></defs><title>WebArchitecture</title><polygon class="cls-1" points="239.58 568.65 231.02 577.21 230.17 576.36 237.28 569.25 144.4 569.25 144.4 568.05 237.28 568.05 230.17 560.94 231.02 560.09 239.58 568.65"/><line class="cls-2" x1="146.22" y1="594.39" x2="239.58" y2="594.39"/><path class="cls-3" d="M156.58,601.66a.77.77,0,0,0-.23-1l-9.78-6.22,9.78-6.23a.76.76,0,1,0-.82-1.28l-10.78,6.87a.76.76,0,0,0,0,1.28l10.78,6.86a.78.78,0,0,0,.41.12A.76.76,0,0,0,156.58,601.66Z"/><text class="cls-4" transform="translate(275.42 93.6)"><tspan class="cls-5">B</tspan><tspan class="cls-6" x="25.15" y="0">A</tspan><tspan x="51.72" y="0">CKEND</tspan></text><rect class="cls-7" x="239.58" y="191.04" width="349.27" height="738.03"/><text class="cls-8" transform="translate(260.33 897.3) rotate(0.1) scale(1.09 1)"><tspan class="cls-9">P</tspan><tspan x="22.19" y="0">O</tspan><tspan class="cls-10" x="48.64" y="0">S</tspan><tspan class="cls-11" x="69.63" y="0">T</tspan><tspan x="88.91" y="0">GR</tspan><tspan class="cls-12" x="137.54" y="0">E</tspan><tspan x="157.27" y="0">SQL</tspan></text><text class="cls-13" transform="translate(239.58 999.74)"><tspan class="cls-14">D</tspan><tspan class="cls-15" x="27.24" y="0">AT</tspan><tspan x="70.92" y="0">A</tspan></text><text class="cls-16" transform="translate(239.58 1041.74)">L<tspan class="cls-17" x="19.21" y="0">A</tspan><tspan class="cls-18" x="43.27" y="0">YER</tspan></text><rect class="cls-19" x="275.42" y="368.7" width="277.6" height="380.14"/><ellipse class="cls-19" cx="414.22" cy="741.64" rx="138.8" ry="63.37"/><ellipse class="cls-20" cx="414.22" cy="364.03" rx="138.8" ry="63.37"/><text class="cls-21" transform="translate(300.19 557.53)"><tspan class="cls-22">E</tspan><tspan x="14.67" y="0">VENT</tspan></text><text class="cls-21" transform="translate(300.19 478.36)"><tspan class="cls-23">C</tspan><tspan x="17.17" y="0">OURSE</tspan></text><text class="cls-21" transform="translate(300.56 636.7)"><tspan class="cls-24">C</tspan><tspan x="17.17" y="0">OMMENT</tspan></text><text class="cls-25" transform="translate(300.23 671.71)"><tspan class="cls-26">C</tspan><tspan x="13.59" y="0">OURS</tspan><tspan class="cls-27" x="69.93" y="0">E</tspan><tspan x="81.93" y="0">_PR</tspan><tspan class="cls-26" x="119" y="0">E</tspan><tspan x="130.59" y="0">SEN</tspan><tspan class="cls-28" x="169.72" y="0">TA</tspan><tspan class="cls-29" x="193.11" y="0">TION</tspan></text><text class="cls-25" transform="translate(300.35 705.34)"><tspan class="cls-26">C</tspan><tspan x="13.59" y="0">OURS</tspan><tspan class="cls-27" x="69.93" y="0">E</tspan><tspan class="cls-30" x="81.93" y="0">_</tspan><tspan class="cls-31" x="91.2" y="0">V</tspan><tspan x="104.74" y="0">O</tspan><tspan class="cls-32" x="120.16" y="0">L</tspan><tspan x="130.51" y="0">UNTEER</tspan></text><text class="cls-21" transform="translate(300.22 597.12)">PERSON</text><text class="cls-21" transform="translate(299.89 517.95)">R<tspan class="cls-24" x="17.56" y="0">E</tspan><tspan x="32.2" y="0">SOU</tspan><tspan class="cls-33" x="85.85" y="0">R</tspan><tspan class="cls-34" x="103.28" y="0">CE</tspan></text><text class="cls-4" transform="matrix(0, -1, 1, 0, 129.35, 762.36)">APPLI<tspan class="cls-35" x="106.57" y="0">C</tspan><tspan class="cls-15" x="131.31" y="0">A</tspan><tspan class="cls-18" x="155.56" y="0">TION </tspan><tspan class="cls-36" x="254.58" y="0">L</tspan><tspan class="cls-37" x="274.61" y="0">A</tspan><tspan x="299.05" y="0">YER</tspan></text></svg>