<svg id="Layer_1" data-name="Layer 1" xmlns="http://www.w3.org/2000/svg" viewBox="0 0 2438 1115"><defs><style>.cls-1{fill:#7a7a7a;}.cls-2{fill:#f4f4f4;}.cls-3{fill:#8dc9b1;}.cls-30,.cls-4{font-size:25.74px;}.cls-30,.cls-4,.cls-51,.cls-75{font-family:NunitoSans-Light, Nunito Sans;}.cls-5{letter-spacing:-0.01em;}.cls-6{letter-spacing:-0.06em;}.cls-7{letter-spacing:-0.02em;}.cls-38,.cls-8{font-size:34.3px;}.cls-38,.cls-43,.cls-47,.cls-55,.cls-8{font-family:NunitoSans-SemiBold, Nunito Sans;font-weight:700;}.cls-9{letter-spacing:-0.01em;}.cls-10{letter-spacing:-0.02em;}.cls-11{letter-spacing:0em;}.cls-12{letter-spacing:0em;}.cls-13{letter-spacing:-0.02em;}.cls-14{letter-spacing:-0.08em;}.cls-15{letter-spacing:-0.01em;}.cls-16{letter-spacing:0.01em;}.cls-17{letter-spacing:0.03em;}.cls-18{fill:#202020;}.cls-19,.cls-20,.cls-21,.cls-22,.cls-23,.cls-24,.cls-25,.cls-26,.cls-27,.cls-63,.cls-65,.cls-66,.cls-67,.cls-68,.cls-69,.cls-70,.cls-71{fill:none;stroke-miterlimit:10;}.cls-19,.cls-20,.cls-21,.cls-22,.cls-23,.cls-24,.cls-25,.cls-26,.cls-27{stroke:#bfbfbf;}.cls-19,.cls-20,.cls-21{stroke-width:2.11px;}.cls-20{stroke-dasharray:4.78 4.78;}.cls-21{stroke-dasharray:4.87 4.87;}.cls-22,.cls-23,.cls-24{stroke-width:2.13px;}.cls-23{stroke-dasharray:4.86 4.86;}.cls-24{stroke-dasharray:4.94 4.94;}.cls-25,.cls-26,.cls-27{stroke-width:2.4px;}.cls-26{stroke-dasharray:5.44 5.44;}.cls-27{stroke-dasharray:5.52 5.52;}.cls-28{fill:#7ad6dd;}.cls-29{letter-spacing:-0.01em;}.cls-30{fill:#757575;}.cls-31{letter-spacing:-0.01em;}.cls-32{letter-spacing:-0.08em;}.cls-33{fill:#f4c260;}.cls-34{letter-spacing:-0.01em;}.cls-35{fill:#71cc7e;}.cls-36{letter-spacing:-0.01em;}.cls-37{letter-spacing:-0.02em;}.cls-38{fill:#6b6b6b;}.cls-39{letter-spacing:0em;}.cls-40{letter-spacing:-0.04em;}.cls-41{letter-spacing:0em;}.cls-42{fill:#ffaba3;}.cls-43,.cls-51,.cls-55{font-size:37.37px;}.cls-44{letter-spacing:-0.01em;}.cls-45{letter-spacing:0em;}.cls-46{letter-spacing:-0.09em;}.cls-47{font-size:30.15px;fill:#fff;}.cls-48{letter-spacing:0em;}.cls-49{letter-spacing:-0.02em;}.cls-50{letter-spacing:-0.01em;}.cls-51{letter-spacing:-0.02em;}.cls-52{letter-spacing:-0.08em;}.cls-53{letter-spacing:-0.02em;}.cls-54{letter-spacing:-0.08em;}.cls-55{fill:#b2b2b2;}.cls-56{letter-spacing:0em;}.cls-57{letter-spacing:-0.02em;}.cls-58{letter-spacing:-0.02em;}.cls-59{letter-spacing:-0.01em;}.cls-60{letter-spacing:-0.01em;}.cls-61{letter-spacing:-0.02em;}.cls-62{letter-spacing:-0.08em;}.cls-63,.cls-65,.cls-67,.cls-68,.cls-69,.cls-70,.cls-71{stroke:#515151;}.cls-63{stroke-width:1.61px;stroke-dasharray:4.98 4.98;}.cls-64{fill:#515151;}.cls-65{stroke-width:1.77px;stroke-dasharray:5.47 5.47;}.cls-66{stroke:#bcbcbc;stroke-width:1.98px;stroke-dasharray:15.54;}.cls-67{stroke-width:1.42px;stroke-dasharray:4.38 4.38;}.cls-68{stroke-width:1.68px;stroke-dasharray:5.19 5.19;}.cls-69{stroke-width:1.55px;stroke-dasharray:4.78 4.78;}.cls-70{stroke-width:1.51px;stroke-dasharray:4.66 4.66;}.cls-71{stroke-width:1.81px;stroke-dasharray:5.59 5.59;}.cls-72{fill:#cecece;}.cls-73{fill:#e2e2e2;}.cls-74{letter-spacing:-0.01em;}.cls-75{font-size:20.37px;}.cls-76{letter-spacing:-0.01em;}.cls-77{letter-spacing:0.01em;}.cls-78{letter-spacing:-0.08em;}.cls-79{letter-spacing:0em;}.cls-80{letter-spacing:-0.05em;}.cls-81{letter-spacing:-0.02em;}.cls-82{letter-spacing:-0.02em;}.cls-83{fill:#777;}</style></defs><title>WebArchitecture</title><rect class="cls-1" x="299.35" y="186.63" width="214.48" height="77.06" rx="12" ry="12"/><rect class="cls-2" x="652" y="195.17" width="1176.35" height="743.58"/><rect class="cls-3" x="678.02" y="469.45" width="248" height="221.57"/><text class="cls-4" transform="translate(696.08 608.7)"><tspan class="cls-5">S</tspan><tspan class="cls-6" x="15.37" y="0">W</tspan><tspan class="cls-7" x="42.01" y="0">A</tspan><tspan x="59.9" y="0">GGER</tspan></text><text class="cls-4" transform="translate(696.08 645.78)">OPEN API</text><text class="cls-8" transform="matrix(1.09, 0, 0, 1, 712.03, 521.06)">R<tspan class="cls-9" x="23.67" y="0">E</tspan><tspan class="cls-10" x="43.39" y="0">S</tspan><tspan x="64.38" y="0">T API</tspan></text><text class="cls-4" transform="translate(696.08 571.95)">SP<tspan class="cls-11" x="32.05" y="0">E</tspan><tspan class="cls-12" x="46.83" y="0">CIFI</tspan><tspan class="cls-13" x="91.05" y="0">C</tspan><tspan class="cls-14" x="107.99" y="0">A</tspan><tspan x="124.44" y="0">TIONS</tspan></text><text class="cls-8" transform="matrix(1.09, 0, 0, 1, 678.02, 400.57)">IND<tspan class="cls-15" x="60.23" y="0">E</tspan><tspan class="cls-16" x="80.02" y="0">X</tspan><tspan class="cls-17" x="102.8" y="0">.</tspan><tspan x="112.16" y="0">JS</tspan></text><polygon class="cls-18" points="712.03 469.45 700.73 458.15 701.85 457.03 711.24 466.41 711.24 454.99 711.24 413.33 712.82 413.33 712.82 454.99 712.82 466.41 722.21 457.03 723.33 458.15 712.03 469.45"/><polyline class="cls-19" points="1240.17 904.56 1240.17 907 1237.73 907"/><line class="cls-20" x1="1232.95" y1="907" x2="1025" y2="907"/><polyline class="cls-19" points="1022.61 907 1020.17 907 1020.17 904.56"/><line class="cls-21" x1="1020.17" y1="899.69" x2="1020.17" y2="249.3"/><polyline class="cls-19" points="1020.17 246.87 1020.17 244.42 1022.61 244.42"/><line class="cls-20" x1="1027.39" y1="244.42" x2="1235.34" y2="244.42"/><polyline class="cls-19" points="1237.73 244.42 1240.17 244.42 1240.17 246.87"/><line class="cls-21" x1="1240.17" y1="251.74" x2="1240.17" y2="902.12"/><polyline class="cls-22" points="1490.66 908.95 1490.66 911.41 1488.2 911.41"/><line class="cls-23" x1="1483.34" y1="911.41" x2="1272.07" y2="911.41"/><polyline class="cls-22" points="1269.64 911.41 1267.17 911.41 1267.17 908.95"/><line class="cls-24" x1="1267.17" y1="904" x2="1267.17" y2="253.77"/><polyline class="cls-22" points="1267.17 251.29 1267.17 248.83 1269.64 248.83"/><line class="cls-23" x1="1274.49" y1="248.83" x2="1485.77" y2="248.83"/><polyline class="cls-22" points="1488.2 248.83 1490.66 248.83 1490.66 251.29"/><line class="cls-24" x1="1490.66" y1="256.24" x2="1490.66" y2="906.47"/><polyline class="cls-25" points="1800.68 907 1800.68 909.77 1797.91 909.77"/><line class="cls-26" x1="1792.47" y1="909.77" x2="1523.16" y2="909.77"/><polyline class="cls-25" points="1520.43 909.77 1517.66 909.77 1517.66 907"/><line class="cls-27" x1="1517.66" y1="901.47" x2="1517.66" y2="252.72"/><polyline class="cls-25" points="1517.66 249.96 1517.66 247.19 1520.43 247.19"/><line class="cls-26" x1="1525.88" y1="247.19" x2="1795.19" y2="247.19"/><polyline class="cls-25" points="1797.91 247.19 1800.68 247.19 1800.68 249.96"/><line class="cls-27" x1="1800.68" y1="255.48" x2="1800.68" y2="904.23"/><rect class="cls-28" x="1042.33" y="735.04" width="163.32" height="67.09"/><text class="cls-4" transform="translate(1058.65 777.99)"><tspan class="cls-5">C</tspan><tspan x="17.17" y="0">OMMENT</tspan></text><rect class="cls-28" x="1042.33" y="365.04" width="138.78" height="67.09"/><text class="cls-4" transform="translate(1058.65 407.99)"><tspan class="cls-5">C</tspan><tspan x="17.17" y="0">OURSE</tspan></text><rect class="cls-2" x="1882.73" y="200.72" width="349.27" height="738.03"/><rect class="cls-28" x="1042.33" y="614.6" width="138.78" height="67.09"/><text class="cls-4" transform="translate(1058.65 657.55)">PERSON</text><rect class="cls-28" x="1042.33" y="486.33" width="116.51" height="67.09"/><text class="cls-4" transform="translate(1058.65 529.28)"><tspan class="cls-29">E</tspan><tspan x="14.67" y="0">VENT</tspan></text><text class="cls-30" transform="matrix(1, 0, 0, 1, 1042.33, 289.33)"><tspan class="cls-5">C</tspan><tspan x="17.17" y="0">ONT</tspan><tspan class="cls-31" x="70.77" y="0">R</tspan><tspan x="88.19" y="0">OLLER </tspan><tspan class="cls-13" x="0" y="30.89">L</tspan><tspan class="cls-32" x="13.23" y="30.89">A</tspan><tspan x="29.81" y="30.89">YER</tspan></text><rect class="cls-33" x="1289" y="732.65" width="155.11" height="90.68"/><text class="cls-4" transform="translate(1305.31 775.61)"><tspan class="cls-5">C</tspan><tspan x="17.17" y="0">OMMENT</tspan><tspan x="0" y="30.89">SE</tspan><tspan class="cls-34" x="30.53" y="30.89">R</tspan><tspan x="47.83" y="30.89">VICE</tspan></text><rect class="cls-33" x="1289" y="362.65" width="137.17" height="90.68"/><text class="cls-4" transform="translate(1305.31 405.61)"><tspan class="cls-5">C</tspan><tspan x="17.17" y="0">OURSE</tspan><tspan x="0" y="30.89">SE</tspan><tspan class="cls-34" x="30.53" y="30.89">R</tspan><tspan x="47.83" y="30.89">VICE</tspan></text><rect class="cls-33" x="1288.79" y="486.71" width="137.58" height="90.68"/><text class="cls-4" transform="translate(1305.11 529.66)"><tspan class="cls-29">E</tspan><tspan x="14.67" y="0">VENT</tspan><tspan x="0" y="30.89">SE</tspan><tspan class="cls-34" x="30.53" y="30.89">R</tspan><tspan x="47.83" y="30.89">VICE</tspan></text><rect class="cls-33" x="1290" y="612.21" width="135.17" height="90.68"/><text class="cls-4" transform="translate(1306.31 655.17)">PERSON<tspan x="0" y="30.89">SE</tspan><tspan class="cls-34" x="30.53" y="30.89">R</tspan><tspan x="47.83" y="30.89">VICE</tspan></text><text class="cls-30" transform="matrix(1, 0, 0, 1, 1289, 293.74)">SE<tspan class="cls-34" x="30.53" y="0">R</tspan><tspan x="47.83" y="0">VICE </tspan><tspan class="cls-13" x="0" y="30.89">L</tspan><tspan class="cls-32" x="13.23" y="30.89">A</tspan><tspan x="29.81" y="30.89">YER</tspan></text><rect class="cls-35" x="1543.86" y="732.65" width="212.45" height="58.42"/><text class="cls-4" transform="translate(1560.18 775.61)"><tspan class="cls-5">C</tspan><tspan x="17.17" y="0">OMMENT</tspan><tspan class="cls-36" x="128.92" y="0">D</tspan><tspan class="cls-37" x="147.35" y="0">A</tspan><tspan class="cls-12" x="165.24" y="0">O</tspan></text><text class="cls-38" transform="matrix(1.09, 0, 0, 1, 1903.45, 907)"><tspan class="cls-39">P</tspan><tspan x="22.19" y="0">O</tspan><tspan class="cls-10" x="48.64" y="0">S</tspan><tspan class="cls-40" x="69.63" y="0">T</tspan><tspan x="88.91" y="0">GR</tspan><tspan class="cls-9" x="137.55" y="0">E</tspan><tspan class="cls-41" x="157.27" y="0">SQL</tspan></text><rect class="cls-35" x="1543.15" y="358.7" width="192.5" height="58.42"/><text class="cls-4" transform="translate(1559.47 401.65)"><tspan class="cls-5">C</tspan><tspan x="17.17" y="0">OURSE</tspan><tspan class="cls-36" x="103.28" y="0">D</tspan><tspan class="cls-37" x="121.71" y="0">A</tspan><tspan class="cls-12" x="139.6" y="0">O</tspan></text><rect class="cls-35" x="1543.86" y="426.92" width="221.17" height="58.42"/><text class="cls-4" transform="translate(1560.18 469.87)">R<tspan class="cls-5" x="17.56" y="0">E</tspan><tspan x="32.2" y="0">SOU</tspan><tspan class="cls-31" x="85.85" y="0">R</tspan><tspan class="cls-12" x="103.28" y="0">CE</tspan><tspan class="cls-36" x="135.61" y="0">D</tspan><tspan class="cls-7" x="154.04" y="0">A</tspan><tspan x="171.93" y="0">O</tspan></text><rect class="cls-35" x="1543.86" y="516.58" width="167.17" height="58.42"/><text class="cls-4" transform="translate(1560.18 559.54)"><tspan class="cls-29">E</tspan><tspan x="14.67" y="0">VENT</tspan><tspan class="cls-36" x="81.19" y="0">D</tspan><tspan class="cls-7" x="99.62" y="0">A</tspan><tspan x="117.51" y="0">O</tspan></text><rect class="cls-35" x="1543.86" y="614.7" width="191.08" height="58.42"/><text class="cls-4" transform="translate(1560.18 657.66)">PERSON<tspan class="cls-36" x="102.92" y="0">D</tspan><tspan class="cls-7" x="121.35" y="0">A</tspan><tspan x="139.24" y="0">O</tspan></text><text class="cls-30" transform="matrix(1, 0, 0, 1, 1543.86, 292.1)"><tspan class="cls-36">D</tspan><tspan class="cls-14" x="18.43" y="0">AT</tspan><tspan x="47.98" y="0">A </tspan><tspan class="cls-7" x="73.01" y="0">A</tspan><tspan class="cls-34" x="90.9" y="0">C</tspan><tspan class="cls-12" x="108.07" y="0">C</tspan><tspan class="cls-5" x="125.49" y="0">E</tspan><tspan x="140.14" y="0">SS </tspan><tspan class="cls-13" x="0" y="30.89">L</tspan><tspan class="cls-32" x="13.23" y="30.89">A</tspan><tspan x="29.81" y="30.89">YER</tspan></text><rect class="cls-2" x="145.66" y="329.26" width="396.84" height="609.49"/><rect class="cls-42" x="235.16" y="374.41" width="217.84" height="217.84"/><text class="cls-43" transform="translate(145.66 1009.42)">PR<tspan class="cls-44" x="50.15" y="0">E</tspan><tspan class="cls-45" x="71.63" y="0">SEN</tspan><tspan class="cls-46" x="144.69" y="0">TA</tspan><tspan x="188.37" y="0">TION</tspan></text><text class="cls-43" transform="matrix(1, 0, 0, 1, 145.66, 293.34)">USER</text><text class="cls-47" transform="translate(328.05 235.33)">B<tspan class="cls-48" x="20.44" y="0">R</tspan><tspan class="cls-49" x="41.09" y="0">O</tspan><tspan class="cls-50" x="63.82" y="0">W</tspan><tspan x="96.77" y="0">SER</tspan></text><text class="cls-51" transform="translate(145.66 1051.57)">L<tspan class="cls-52" x="19.21" y="0">A</tspan><tspan class="cls-45" x="43.27" y="0">YER</tspan></text><text class="cls-4" transform="translate(251.56 476.91)">IMG</text><text class="cls-4" transform="translate(251.56 513.66)"><tspan class="cls-5">C</tspan><tspan x="17.17" y="0">SS</tspan></text><text class="cls-4" transform="translate(253.39 550.49)">JS</text><text class="cls-43" transform="translate(652 1009.42)">APPLI<tspan class="cls-53" x="106.57" y="0">C</tspan><tspan class="cls-54" x="131.31" y="0">A</tspan><tspan class="cls-45" x="155.56" y="0">TION</tspan></text><text class="cls-55" transform="translate(652 112.34)"><tspan class="cls-56">B</tspan><tspan class="cls-57" x="25.15" y="0">A</tspan><tspan x="51.72" y="0">CKEND</tspan></text><text class="cls-55" transform="translate(344.08 112.34)">F<tspan class="cls-56" x="20.96" y="0">R</tspan><tspan class="cls-45" x="46.56" y="0">ONTEND</tspan></text><text class="cls-51" transform="translate(652 1051.42)">L<tspan class="cls-52" x="19.21" y="0">A</tspan><tspan class="cls-45" x="43.27" y="0">YER</tspan></text><text class="cls-43" transform="translate(1882.73 1009.42)"><tspan class="cls-58">D</tspan><tspan class="cls-54" x="27.24" y="0">AT</tspan><tspan x="70.92" y="0">A</tspan></text><text class="cls-51" transform="translate(1882.73 1051.42)">L<tspan class="cls-52" x="19.21" y="0">A</tspan><tspan class="cls-45" x="43.27" y="0">YER</tspan></text><polygon class="cls-18" points="299.35 226.17 288.05 237.47 286.93 236.35 296.32 226.96 284.89 226.96 245.14 226.96 245.14 225.38 284.89 225.38 296.32 225.38 286.93 215.99 288.05 214.87 299.35 226.17"/><text class="cls-8" transform="matrix(1.09, 0, 0, 1, 269.18, 426.02)"><tspan class="cls-59">A</tspan><tspan x="24.94" y="0">SS</tspan><tspan class="cls-60" x="67.95" y="0">E</tspan><tspan class="cls-61" x="87.81" y="0">T</tspan><tspan x="107.77" y="0">S</tspan></text><rect class="cls-42" x="235.16" y="650.37" width="217.84" height="137.5"/><text class="cls-4" transform="translate(251.56 752.87)">HTML</text><text class="cls-8" transform="matrix(1.09, 0, 0, 1, 269.18, 701.98)"><tspan class="cls-62">P</tspan><tspan class="cls-61" x="19.79" y="0">A</tspan><tspan x="44.18" y="0">G</tspan><tspan class="cls-9" x="69.15" y="0">E</tspan><tspan x="88.87" y="0">S</tspan></text><text class="cls-8" transform="matrix(1.09, 0, 0, 1, 235.16, 880.87)">IND<tspan class="cls-15" x="60.23" y="0">E</tspan><tspan class="cls-16" x="80.02" y="0">X</tspan><tspan class="cls-41" x="102.8" y="0">.HTML</tspan></text><text class="cls-38" transform="matrix(1.09, 0, 0, 1, 678.02, 907)">NOD<tspan class="cls-16" x="77.52" y="0">E</tspan><tspan class="cls-17" x="97.93" y="0">.</tspan><tspan x="107.29" y="0">JS</tspan></text><polygon class="cls-18" points="406 326.03 394.7 314.73 395.82 313.61 405.21 322.99 405.21 311.57 405.21 266.59 406.79 266.59 406.79 311.57 406.79 322.99 416.18 313.61 417.3 314.73 406 326.03"/><polygon class="cls-18" points="335.86 801.38 347.16 812.68 346.04 813.8 336.65 804.42 336.65 815.84 336.65 841.74 335.07 841.74 335.07 815.84 335.07 804.42 325.68 813.8 324.56 812.68 335.86 801.38"/><path class="cls-18" d="M226.34,505.5l-1.74,1.74L215,516.8l-1.12-1.12,9.38-9.39H180.53c-.1,0,0,.1-.06.15v.6l.06,6.4.12,13.52.51,55.08,2,220.36.49,53,.05,6.24,0,3.08,0,1.54v.67s.06,0,.08,0h39.8v1.58H182.31s-.09,0-.09,0V866l0-3.55-.06-7-.49-53-2-220.35-.5-55.09-.13-14-.07-7.37v-.69c0-.06-.05-.21.06-.17H223.3l-9.38-9.39L215,494.2l9.56,9.56Z"/><polygon class="cls-18" points="335.86 603.04 347.16 614.34 346.04 615.47 336.65 606.08 336.65 617.5 336.65 643.41 335.07 643.41 335.07 617.5 335.07 606.08 325.68 615.47 324.56 614.34 335.86 603.04"/><polygon class="cls-18" points="1288.99 387.9 1279.88 397.02 1278.98 396.12 1286.55 388.55 1181.11 388.55 1181.11 387.27 1286.55 387.27 1278.98 379.7 1279.88 378.79 1288.99 387.9"/><line class="cls-63" x1="1183.05" y1="408.33" x2="1289" y2="408.33"/><path class="cls-64" d="M1194.08,416.08a.83.83,0,0,0-.25-1.12l-10.41-6.63,10.41-6.62a.81.81,0,1,0-.87-1.37l-11.48,7.31a.82.82,0,0,0-.37.68.79.79,0,0,0,.37.68l11.48,7.31a.8.8,0,0,0,.43.13A.82.82,0,0,0,1194.08,416.08Z"/><polygon class="cls-18" points="1288.99 507.79 1278.98 517.8 1277.99 516.81 1286.31 508.49 1158.85 508.49 1158.85 507.09 1286.31 507.09 1277.99 498.77 1278.98 497.78 1288.99 507.79"/><line class="cls-65" x1="1160.98" y1="528.22" x2="1289" y2="528.22"/><path class="cls-64" d="M1173.08,536.72a.87.87,0,0,0-.27-1.22l-11.43-7.28,11.43-7.28a.89.89,0,0,0-1-1.5l-12.61,8a.9.9,0,0,0-.41.75.92.92,0,0,0,.41.75l12.61,8a.84.84,0,0,0,.48.14A.87.87,0,0,0,1173.08,536.72Z"/><polygon class="cls-18" points="1288.99 648.1 1279.88 657.22 1278.98 656.31 1286.55 648.74 1181.11 648.74 1181.11 647.46 1286.55 647.46 1278.98 639.89 1279.88 638.99 1288.99 648.1"/><line class="cls-63" x1="1183.05" y1="668.53" x2="1289" y2="668.53"/><path class="cls-64" d="M1194.08,676.27a.82.82,0,0,0-.25-1.11l-10.41-6.63,10.41-6.63a.81.81,0,1,0-.87-1.36l-11.48,7.31a.82.82,0,0,0-.37.68.81.81,0,0,0,.37.68l11.48,7.31a.8.8,0,0,0,.43.13A.83.83,0,0,0,1194.08,676.27Z"/><line class="cls-66" x1="598.25" y1="62.34" x2="598.8" y2="1079.83"/><polygon class="cls-18" points="1288.99 760.67 1280.98 768.68 1280.19 767.88 1286.84 761.23 1205.65 761.23 1205.65 760.1 1286.84 760.1 1280.19 753.45 1280.98 752.66 1288.99 760.67"/><line class="cls-67" x1="1207.35" y1="781.1" x2="1289" y2="781.1"/><path class="cls-64" d="M1217,787.9a.71.71,0,0,0-.21-1l-9.15-5.82,9.15-5.83a.71.71,0,0,0,.21-1,.7.7,0,0,0-1-.22L1206,780.5a.7.7,0,0,0,0,1.19l10.09,6.43a.73.73,0,0,0,.38.11A.7.7,0,0,0,1217,787.9Z"/><polygon class="cls-18" points="1543.15 371.57 1533.67 381.05 1532.73 380.11 1540.6 372.24 1426.37 372.24 1426.37 370.91 1540.6 370.91 1532.73 363.03 1533.67 362.09 1543.15 371.57"/><line class="cls-68" x1="1428.39" y1="392" x2="1543.15" y2="392"/><path class="cls-64" d="M1439.86,400.06a.84.84,0,0,0-.26-1.16l-10.83-6.9,10.83-6.9a.84.84,0,1,0-.9-1.41l-11.94,7.6a.84.84,0,0,0,0,1.42l11.94,7.6a.81.81,0,0,0,.45.13A.84.84,0,0,0,1439.86,400.06Z"/><polygon class="cls-18" points="1543.15 432.13 1533.67 441.61 1532.73 440.67 1540.6 432.8 1426.37 432.8 1426.37 431.47 1540.6 431.47 1532.73 423.59 1533.67 422.65 1543.15 432.13"/><line class="cls-68" x1="1428.39" y1="452.56" x2="1543.15" y2="452.56"/><path class="cls-64" d="M1439.86,460.62a.84.84,0,0,0-.26-1.16l-10.83-6.9,10.83-6.9a.84.84,0,1,0-.9-1.41l-11.94,7.6a.84.84,0,0,0,0,1.42l11.94,7.6a.81.81,0,0,0,.45.13A.84.84,0,0,0,1439.86,460.62Z"/><polygon class="cls-18" points="1916.89 578.48 1907.41 587.96 1906.47 587.02 1914.34 579.14 1800.11 579.14 1800.11 577.81 1914.34 577.81 1906.47 569.94 1907.41 569 1916.89 578.48"/><line class="cls-68" x1="1802.13" y1="598.91" x2="1916.89" y2="598.91"/><path class="cls-64" d="M1813.6,607a.84.84,0,0,0-.26-1.16l-10.83-6.89,10.83-6.9a.84.84,0,0,0,.26-1.16.85.85,0,0,0-1.16-.26l-11.94,7.61a.83.83,0,0,0,0,1.41l11.94,7.61a.81.81,0,0,0,.45.13A.84.84,0,0,0,1813.6,607Z"/><polygon class="cls-18" points="1543.15 533.55 1533.67 543.03 1532.73 542.09 1540.6 534.22 1426.37 534.22 1426.37 532.88 1540.6 532.88 1532.73 525.01 1533.67 524.07 1543.15 533.55"/><line class="cls-68" x1="1428.39" y1="553.98" x2="1543.15" y2="553.98"/><path class="cls-64" d="M1439.86,562a.84.84,0,0,0-.26-1.16L1428.77,554l10.83-6.9a.84.84,0,0,0,.26-1.16.85.85,0,0,0-1.16-.26l-11.94,7.61a.82.82,0,0,0-.39.71.84.84,0,0,0,.39.71l11.94,7.6a.81.81,0,0,0,.45.13A.85.85,0,0,0,1439.86,562Z"/><polygon class="cls-18" points="1543.15 652.69 1533.67 662.17 1532.73 661.23 1540.6 653.36 1426.37 653.36 1426.37 652.03 1540.6 652.03 1532.73 644.15 1533.67 643.21 1543.15 652.69"/><line class="cls-68" x1="1428.39" y1="673.12" x2="1543.15" y2="673.12"/><path class="cls-64" d="M1439.86,681.18a.84.84,0,0,0-.26-1.16l-10.83-6.9,10.83-6.9a.84.84,0,1,0-.9-1.41l-11.94,7.6a.84.84,0,0,0,0,1.42l11.94,7.6a.81.81,0,0,0,.45.13A.84.84,0,0,0,1439.86,681.18Z"/><polygon class="cls-18" points="1543.15 755.59 1534.42 764.32 1533.55 763.46 1540.8 756.2 1444.11 756.2 1444.11 754.98 1540.8 754.98 1533.55 747.72 1534.42 746.86 1543.15 755.59"/><line class="cls-69" x1="1445.97" y1="776.02" x2="1543.15" y2="776.02"/><path class="cls-64" d="M1456.53,783.44a.78.78,0,0,0-.24-1.07l-10-6.35,10-6.35a.78.78,0,0,0,.24-1.07.79.79,0,0,0-1.07-.24l-11,7a.75.75,0,0,0-.36.65.76.76,0,0,0,.36.65l11,7a.81.81,0,0,0,.42.12A.77.77,0,0,0,1456.53,783.44Z"/><polygon class="cls-18" points="1020.17 575.49 1011.65 584 1010.81 583.16 1017.88 576.08 926.01 576.08 926.01 574.89 1017.88 574.89 1010.81 567.82 1011.65 566.97 1020.17 575.49"/><line class="cls-70" x1="927.82" y1="601.22" x2="1020.17" y2="601.22"/><path class="cls-64" d="M938.12,608.46a.75.75,0,0,0-.23-1l-9.72-6.2,9.72-6.19a.75.75,0,0,0,.23-1,.76.76,0,0,0-1-.23l-10.72,6.83a.75.75,0,0,0,0,1.27l10.72,6.83a.78.78,0,0,0,.41.12A.75.75,0,0,0,938.12,608.46Z"/><polygon class="cls-18" points="678.02 575.49 667.8 585.7 666.79 584.69 675.27 576.2 542.5 576.2 542.5 574.77 675.27 574.77 666.79 566.29 667.8 565.27 678.02 575.49"/><line class="cls-71" x1="544.68" y1="601.22" x2="678.02" y2="601.22"/><path class="cls-64" d="M557,609.9a.9.9,0,0,0-.28-1.25l-11.66-7.43,11.66-7.43a.88.88,0,0,0,.28-1.24.91.91,0,0,0-1.25-.28l-12.86,8.19a.91.91,0,0,0-.42.76.92.92,0,0,0,.42.77l12.86,8.19a1,1,0,0,0,.49.14A.9.9,0,0,0,557,609.9Z"/><rect class="cls-72" x="1918.56" y="378.38" width="277.6" height="380.14"/><ellipse class="cls-72" cx="2057.36" cy="751.32" rx="138.8" ry="63.37"/><ellipse class="cls-73" cx="2057.36" cy="373.71" rx="138.8" ry="63.37"/><text class="cls-4" transform="translate(1943.33 567.21)"><tspan class="cls-29">E</tspan><tspan x="14.67" y="0">VENT</tspan></text><text class="cls-4" transform="translate(1943.33 488.04)"><tspan class="cls-74">C</tspan><tspan x="17.17" y="0">OURSE</tspan></text><text class="cls-4" transform="translate(1943.71 646.38)"><tspan class="cls-5">C</tspan><tspan x="17.17" y="0">OMMENT</tspan></text><text class="cls-75" transform="translate(1943.37 681.39)"><tspan class="cls-76">C</tspan><tspan x="13.59" y="0">OURS</tspan><tspan class="cls-77" x="69.93" y="0">E</tspan><tspan x="81.93" y="0">_PR</tspan><tspan class="cls-76" x="119" y="0">E</tspan><tspan x="130.59" y="0">SEN</tspan><tspan class="cls-78" x="169.72" y="0">TA</tspan><tspan class="cls-79" x="193.11" y="0">TION</tspan></text><text class="cls-75" transform="translate(1943.5 715.02)"><tspan class="cls-76">C</tspan><tspan x="13.59" y="0">OURS</tspan><tspan class="cls-77" x="69.93" y="0">E</tspan><tspan class="cls-80" x="81.93" y="0">_</tspan><tspan class="cls-81" x="91.2" y="0">V</tspan><tspan x="104.74" y="0">O</tspan><tspan class="cls-82" x="120.16" y="0">L</tspan><tspan x="130.51" y="0">UNTEER</tspan></text><text class="cls-4" transform="translate(1943.36 606.8)">PERSON</text><text class="cls-4" transform="translate(1943.03 527.63)">R<tspan class="cls-5" x="17.56" y="0">E</tspan><tspan x="32.2" y="0">SOU</tspan><tspan class="cls-31" x="85.85" y="0">R</tspan><tspan class="cls-12" x="103.28" y="0">CE</tspan></text><path class="cls-83" d="M193.13,177.33a16.54,16.54,0,1,0,16.53,16.53A16.53,16.53,0,0,0,193.13,177.33Zm0,38.58a38.59,38.59,0,0,0-38.59,38.59h77.17a38.59,38.59,0,0,0-38.58-38.59Z"/></svg>