<svg id="Layer_1" data-name="Layer 1" xmlns="http://www.w3.org/2000/svg" viewBox="0 0 728 1115"><defs><style>.cls-1{fill:#7a7a7a;}.cls-2{fill:#f4f4f4;}.cls-3{fill:#ffaba3;}.cls-12,.cls-16,.cls-4{font-size:37.37px;}.cls-16,.cls-19,.cls-4,.cls-8{font-family:NunitoSans-SemiBold, Nunito Sans;font-weight:700;}.cls-5{letter-spacing:-0.01em;}.cls-6{letter-spacing:0em;}.cls-7{letter-spacing:-0.09em;}.cls-8{font-size:30.15px;fill:#fff;}.cls-9{letter-spacing:0em;}.cls-10{letter-spacing:-0.02em;}.cls-11{letter-spacing:-0.01em;}.cls-12,.cls-14{font-family:NunitoSans-Light, Nunito Sans;}.cls-12{letter-spacing:-0.02em;}.cls-13{letter-spacing:-0.08em;}.cls-14{font-size:25.74px;}.cls-15{letter-spacing:-0.01em;}.cls-16{fill:#b2b2b2;}.cls-17{letter-spacing:0em;}.cls-18{fill:#202020;}.cls-19{font-size:34.3px;}.cls-20{letter-spacing:-0.01em;}.cls-21{letter-spacing:-0.01em;}.cls-22{letter-spacing:-0.02em;}.cls-23{letter-spacing:-0.08em;}.cls-24{letter-spacing:-0.02em;}.cls-25{letter-spacing:0em;}.cls-26{letter-spacing:-0.01em;}.cls-27{letter-spacing:-0.01em;}.cls-28{letter-spacing:0.01em;}.cls-29{letter-spacing:0em;}.cls-30{fill:none;stroke:#515151;stroke-miterlimit:10;stroke-width:1.52px;stroke-dasharray:4.68 4.68;}.cls-31{fill:#515151;}.cls-32{fill:#777;}.cls-33{letter-spacing:-0.02em;}.cls-34{letter-spacing:-0.08em;}.cls-35{letter-spacing:-0.01em;}.cls-36{letter-spacing:-0.08em;}</style></defs><title>WebArchitecture</title><rect class="cls-1" x="273.33" y="179.8" width="214.48" height="77.06" rx="12" ry="12"/><rect class="cls-2" x="119.65" y="322.42" width="396.84" height="609.49"/><rect class="cls-3" x="209.14" y="367.57" width="217.84" height="217.84"/><text class="cls-4" transform="translate(119.64 1002.58)">PR<tspan class="cls-5" x="50.15" y="0">E</tspan><tspan class="cls-6" x="71.63" y="0">SEN</tspan><tspan class="cls-7" x="144.69" y="0">TA</tspan><tspan x="188.37" y="0">TION</tspan></text><text class="cls-4" transform="translate(119.58 286.41) rotate(0.1)">USER</text><text class="cls-8" transform="translate(302.03 228.5)">B<tspan class="cls-9" x="20.44" y="0">R</tspan><tspan class="cls-10" x="41.09" y="0">O</tspan><tspan class="cls-11" x="63.82" y="0">W</tspan><tspan x="96.77" y="0">SER</tspan></text><text class="cls-12" transform="translate(119.64 1044.74)">L<tspan class="cls-13" x="19.21" y="0">A</tspan><tspan class="cls-6" x="43.27" y="0">YER</tspan></text><text class="cls-14" transform="translate(225.54 470.07)">IMG</text><text class="cls-14" transform="translate(225.54 506.82)"><tspan class="cls-15">C</tspan><tspan x="17.17" y="0">SS</tspan></text><text class="cls-14" transform="translate(227.37 543.65)">JS</text><text class="cls-16" transform="translate(235.18 105.5)">F<tspan class="cls-17" x="20.96" y="0">R</tspan><tspan class="cls-6" x="46.56" y="0">ONTEND</tspan></text><polygon class="cls-18" points="273.33 219.33 262.04 230.63 260.91 229.51 270.3 220.12 258.87 220.12 219.13 220.12 219.13 218.54 258.87 218.54 270.3 218.54 260.91 209.15 262.04 208.03 273.33 219.33"/><text class="cls-19" transform="translate(243.18 419.15) rotate(0.1) scale(1.09 1)"><tspan class="cls-20">A</tspan><tspan x="24.94" y="0">SS</tspan><tspan class="cls-21" x="67.95" y="0">E</tspan><tspan class="cls-22" x="87.81" y="0">T</tspan><tspan x="107.77" y="0">S</tspan></text><rect class="cls-3" x="209.14" y="643.53" width="217.84" height="137.5"/><text class="cls-14" transform="translate(225.54 746.03)">HTML</text><text class="cls-19" transform="translate(243.18 695.11) rotate(0.1) scale(1.09 1)"><tspan class="cls-23">P</tspan><tspan class="cls-24" x="19.79" y="0">A</tspan><tspan class="cls-25" x="44.18" y="0">G</tspan><tspan class="cls-26" x="69.15" y="0">E</tspan><tspan x="88.87" y="0">S</tspan></text><text class="cls-19" transform="translate(209.16 874) rotate(0.1) scale(1.09 1)">IND<tspan class="cls-27" x="60.23" y="0">E</tspan><tspan class="cls-28" x="80.02" y="0">X</tspan><tspan class="cls-29" x="102.8" y="0">.HTML</tspan></text><polygon class="cls-18" points="379.98 319.19 368.68 307.89 369.8 306.77 379.19 316.15 379.19 304.73 379.19 259.75 380.77 259.75 380.77 304.73 380.77 316.15 390.16 306.77 391.28 307.89 379.98 319.19"/><polygon class="cls-18" points="309.84 794.54 321.14 805.84 320.02 806.96 310.64 797.58 310.64 809 310.64 834.9 309.05 834.9 309.05 809 309.05 797.58 299.67 806.96 298.54 805.84 309.84 794.54"/><path class="cls-18" d="M200.32,498.66l-1.74,1.74L189,510l-1.12-1.12,9.38-9.38H154.51c-.1,0,0,.1,0,.14v.6l.06,6.41.13,13.51.5,55.09,2,220.35.49,53,.05,6.24,0,3.08,0,1.54v.68s.06,0,.08,0h39.8v1.59H156.29s-.09,0-.09,0v-2.55l0-3.54-.07-7-.49-53-2-220.35-.51-55.09-.13-14-.07-7.37V498c0-.05-.06-.21,0-.17h44.37l-9.38-9.38,1.12-1.13,9.56,9.57Z"/><polygon class="cls-18" points="309.84 596.21 321.14 607.51 320.02 608.63 310.64 599.24 310.64 610.67 310.64 636.57 309.05 636.57 309.05 610.67 309.05 599.24 299.67 608.63 298.54 607.51 309.84 596.21"/><polygon class="cls-18" points="611.67 568.65 603.11 577.21 602.26 576.36 609.37 569.25 516.48 569.25 516.48 568.05 609.37 568.05 602.26 560.94 603.11 560.09 611.67 568.65"/><line class="cls-30" x1="518.31" y1="594.39" x2="611.67" y2="594.39"/><path class="cls-31" d="M528.66,601.66a.76.76,0,0,0-.23-1l-9.78-6.22,9.78-6.23a.76.76,0,0,0,.23-1,.77.77,0,0,0-1-.23l-10.78,6.87a.76.76,0,0,0,0,1.28l10.78,6.86a.78.78,0,0,0,.41.12A.74.74,0,0,0,528.66,601.66Z"/><path class="cls-32" d="M167.11,170.49A16.54,16.54,0,1,0,183.64,187,16.54,16.54,0,0,0,167.11,170.49Zm0,38.59a38.58,38.58,0,0,0-38.59,38.58h77.17a38.58,38.58,0,0,0-38.58-38.58Z"/><text class="cls-16" transform="matrix(0, -1, 1, 0, 652, 746.03)">APPLI<tspan class="cls-33" x="106.57" y="0">C</tspan><tspan class="cls-34" x="131.31" y="0">A</tspan><tspan class="cls-6" x="155.56" y="0">TION </tspan><tspan class="cls-35" x="254.58" y="0">L</tspan><tspan class="cls-36" x="274.61" y="0">A</tspan><tspan x="299.05" y="0">YER</tspan></text></svg>