<svg id="Layer_1" data-name="Layer 1" xmlns="http://www.w3.org/2000/svg" viewBox="0 0 1382.01 1115"><defs><style>.cls-1,.cls-47,.cls-51{font-size:37.37px;}.cls-1{fill:#b2b2b2;}.cls-1,.cls-16,.cls-47,.cls-53{font-family:NunitoSans-SemiBold, Nunito Sans;font-weight:700;}.cls-2{letter-spacing:-0.01em;}.cls-3{letter-spacing:0em;}.cls-4{letter-spacing:-0.09em;}.cls-5{letter-spacing:-0.01em;}.cls-6{letter-spacing:-0.08em;}.cls-7{letter-spacing:-0.02em;}.cls-8{letter-spacing:-0.08em;}.cls-9{letter-spacing:-0.08em;}.cls-10{fill:#f4f4f4;}.cls-11{fill:#8dc9b1;}.cls-12,.cls-39{font-size:25.74px;}.cls-12,.cls-39,.cls-51{font-family:NunitoSans-Light, Nunito Sans;}.cls-13{letter-spacing:-0.01em;}.cls-14{letter-spacing:-0.06em;}.cls-15{letter-spacing:-0.02em;}.cls-16,.cls-53{font-size:34.3px;}.cls-17{letter-spacing:-0.01em;}.cls-18{letter-spacing:-0.02em;}.cls-19{letter-spacing:0em;}.cls-20{letter-spacing:0em;}.cls-21{letter-spacing:0em;}.cls-22{letter-spacing:-0.02em;}.cls-23{letter-spacing:-0.08em;}.cls-24{letter-spacing:-0.01em;}.cls-25{letter-spacing:0.01em;}.cls-26{letter-spacing:0.03em;}.cls-27{fill:#202020;}.cls-28,.cls-29,.cls-30,.cls-31,.cls-32,.cls-33,.cls-34,.cls-35,.cls-36,.cls-55,.cls-57,.cls-58,.cls-59,.cls-60,.cls-61,.cls-62,.cls-63{fill:none;stroke-miterlimit:10;}.cls-28,.cls-29,.cls-30,.cls-31,.cls-32,.cls-33,.cls-34,.cls-35,.cls-36{stroke:#bfbfbf;}.cls-28,.cls-29,.cls-30{stroke-width:2.11px;}.cls-29{stroke-dasharray:4.78 4.78;}.cls-30{stroke-dasharray:4.87 4.87;}.cls-31,.cls-32,.cls-33{stroke-width:2.13px;}.cls-32{stroke-dasharray:4.86 4.86;}.cls-33{stroke-dasharray:4.94 4.94;}.cls-34,.cls-35,.cls-36{stroke-width:2.4px;}.cls-35{stroke-dasharray:5.44 5.44;}.cls-36{stroke-dasharray:5.52 5.52;}.cls-37{fill:#7ad6dd;}.cls-38{letter-spacing:-0.01em;}.cls-39{fill:#757575;}.cls-40{letter-spacing:-0.01em;}.cls-41{letter-spacing:-0.08em;}.cls-42{fill:#f4c260;}.cls-43{letter-spacing:-0.01em;}.cls-44{fill:#71cc7e;}.cls-45{letter-spacing:-0.01em;}.cls-46{letter-spacing:-0.02em;}.cls-48{letter-spacing:-0.02em;}.cls-49{letter-spacing:0em;}.cls-50{letter-spacing:-0.02em;}.cls-51{letter-spacing:-0.02em;}.cls-52{letter-spacing:-0.08em;}.cls-53{fill:#6b6b6b;}.cls-54{letter-spacing:0.03em;}.cls-55,.cls-57,.cls-58,.cls-59,.cls-60,.cls-61,.cls-62,.cls-63{stroke:#515151;}.cls-55{stroke-width:1.61px;stroke-dasharray:4.98 4.98;}.cls-56{fill:#515151;}.cls-57{stroke-width:1.77px;stroke-dasharray:5.47 5.47;}.cls-58{stroke-width:1.42px;stroke-dasharray:4.38 4.38;}.cls-59{stroke-width:1.68px;stroke-dasharray:5.19 5.19;}.cls-60{stroke-width:1.18px;stroke-dasharray:3.64 3.64;}.cls-61{stroke-width:1.55px;stroke-dasharray:4.78 4.78;}.cls-62{stroke-width:1.03px;stroke-dasharray:3.19 3.19;}.cls-63{stroke-width:1.27px;stroke-dasharray:3.91 3.91;}</style></defs><title>WebArchitecture</title><text class="cls-1" transform="matrix(0, -1, 1, 0, 74, 762.36)">PR<tspan class="cls-2" x="50.15" y="0">E</tspan><tspan class="cls-3" x="71.63" y="0">SEN</tspan><tspan class="cls-4" x="144.69" y="0">TA</tspan><tspan x="188.37" y="0">TION </tspan><tspan class="cls-5" x="287.39" y="0">L</tspan><tspan class="cls-6" x="307.42" y="0">A</tspan><tspan x="331.86" y="0">YER</tspan></text><text class="cls-1" transform="matrix(0, -1, 1, 0, 1327.25, 672.28)"><tspan class="cls-7">D</tspan><tspan class="cls-8" x="27.24" y="0">AT</tspan><tspan x="70.92" y="0">A </tspan><tspan class="cls-5" x="108.22" y="0">L</tspan><tspan class="cls-9" x="128.25" y="0">A</tspan><tspan x="152.68" y="0">YER</tspan></text><rect class="cls-10" x="128" y="176.43" width="1128.71" height="743.58"/><rect class="cls-11" x="156.38" y="450.71" width="248" height="221.57"/><text class="cls-12" transform="translate(174.44 589.97)"><tspan class="cls-13">S</tspan><tspan class="cls-14" x="15.37" y="0">W</tspan><tspan class="cls-15" x="42.01" y="0">A</tspan><tspan x="59.9" y="0">GGER</tspan></text><text class="cls-12" transform="translate(174.44 627.04)">OPEN API</text><text class="cls-16" transform="translate(190.41 502.3) rotate(0.1) scale(1.09 1)">R<tspan class="cls-17" x="23.67" y="0">E</tspan><tspan class="cls-18" x="43.39" y="0">S</tspan><tspan class="cls-19" x="64.38" y="0">T API</tspan></text><text class="cls-12" transform="translate(174.44 553.21)">SP<tspan class="cls-20" x="32.05" y="0">E</tspan><tspan class="cls-21" x="46.83" y="0">CIFI</tspan><tspan class="cls-22" x="91.05" y="0">C</tspan><tspan class="cls-23" x="107.99" y="0">A</tspan><tspan x="124.44" y="0">TIONS</tspan></text><text class="cls-16" transform="translate(156.4 381.81) rotate(0.1) scale(1.09 1)">IND<tspan class="cls-24" x="60.23" y="0">E</tspan><tspan class="cls-25" x="80.02" y="0">X</tspan><tspan class="cls-26" x="102.8" y="0">.</tspan><tspan x="112.16" y="0">JS</tspan></text><polygon class="cls-27" points="190.39 450.71 179.09 439.42 180.21 438.29 189.6 447.68 189.6 436.25 189.6 394.59 191.18 394.59 191.18 436.25 191.18 447.68 200.57 438.29 201.69 439.42 190.39 450.71"/><polyline class="cls-28" points="668.53 885.83 668.53 888.27 666.09 888.27"/><line class="cls-29" x1="661.31" y1="888.27" x2="453.36" y2="888.27"/><polyline class="cls-28" points="450.97 888.27 448.53 888.27 448.53 885.83"/><line class="cls-30" x1="448.53" y1="880.95" x2="448.53" y2="230.57"/><polyline class="cls-28" points="448.53 228.13 448.53 225.69 450.97 225.69"/><line class="cls-29" x1="455.75" y1="225.69" x2="663.7" y2="225.69"/><polyline class="cls-28" points="666.09 225.69 668.53 225.69 668.53 228.13"/><line class="cls-30" x1="668.53" y1="233.01" x2="668.53" y2="883.39"/><polyline class="cls-31" points="919.02 890.21 919.02 892.68 916.56 892.68"/><line class="cls-32" x1="911.7" y1="892.68" x2="700.43" y2="892.68"/><polyline class="cls-31" points="698 892.68 695.53 892.68 695.53 890.21"/><line class="cls-33" x1="695.53" y1="885.27" x2="695.53" y2="235.03"/><polyline class="cls-31" points="695.53 232.56 695.53 230.1 698 230.1"/><line class="cls-32" x1="702.85" y1="230.1" x2="914.13" y2="230.1"/><polyline class="cls-31" points="916.56 230.1 919.02 230.1 919.02 232.56"/><line class="cls-33" x1="919.02" y1="237.51" x2="919.02" y2="887.74"/><polyline class="cls-34" points="1229.04 888.26 1229.04 891.03 1226.27 891.03"/><line class="cls-35" x1="1220.83" y1="891.03" x2="951.52" y2="891.03"/><polyline class="cls-34" points="948.8 891.03 946.02 891.03 946.02 888.26"/><line class="cls-36" x1="946.02" y1="882.74" x2="946.02" y2="233.99"/><polyline class="cls-34" points="946.02 231.23 946.02 228.46 948.8 228.46"/><line class="cls-35" x1="954.24" y1="228.45" x2="1223.55" y2="228.45"/><polyline class="cls-34" points="1226.27 228.46 1229.04 228.46 1229.04 231.23"/><line class="cls-36" x1="1229.04" y1="236.75" x2="1229.04" y2="885.5"/><rect class="cls-37" x="470.69" y="716.3" width="163.32" height="67.09"/><text class="cls-12" transform="translate(487.01 759.26)"><tspan class="cls-13">C</tspan><tspan x="17.17" y="0">OMMENT</tspan></text><rect class="cls-37" x="470.69" y="346.31" width="138.78" height="67.09"/><text class="cls-12" transform="translate(487.01 389.26)"><tspan class="cls-13">C</tspan><tspan x="17.17" y="0">OURSE</tspan></text><rect class="cls-37" x="470.69" y="595.87" width="138.78" height="67.09"/><text class="cls-12" transform="translate(487.01 638.82)">PERSON</text><rect class="cls-37" x="470.69" y="467.59" width="116.51" height="67.09"/><text class="cls-12" transform="translate(487.01 510.55)"><tspan class="cls-38">E</tspan><tspan x="14.67" y="0">VENT</tspan></text><text class="cls-39" transform="translate(470.71 270.57) rotate(0.1)"><tspan class="cls-13">C</tspan><tspan x="17.17" y="0">ONT</tspan><tspan class="cls-40" x="70.77" y="0">R</tspan><tspan x="88.19" y="0">OLLER </tspan><tspan class="cls-22" x="0" y="30.89">L</tspan><tspan class="cls-41" x="13.23" y="30.89">A</tspan><tspan x="29.81" y="30.89">YER</tspan></text><rect class="cls-42" x="717.36" y="713.92" width="155.11" height="90.68"/><text class="cls-12" transform="translate(733.68 756.87)"><tspan class="cls-13">C</tspan><tspan x="17.17" y="0">OMMENT</tspan><tspan x="0" y="30.89">SE</tspan><tspan class="cls-43" x="30.53" y="30.89">R</tspan><tspan x="47.83" y="30.89">VICE</tspan></text><rect class="cls-42" x="717.36" y="343.92" width="137.17" height="90.68"/><text class="cls-12" transform="translate(733.68 386.88)"><tspan class="cls-13">C</tspan><tspan x="17.17" y="0">OURSE</tspan><tspan x="0" y="30.89">SE</tspan><tspan class="cls-43" x="30.53" y="30.89">R</tspan><tspan x="47.83" y="30.89">VICE</tspan></text><rect class="cls-42" x="717.15" y="467.97" width="137.58" height="90.68"/><text class="cls-12" transform="translate(733.47 510.93)"><tspan class="cls-38">E</tspan><tspan x="14.67" y="0">VENT</tspan><tspan x="0" y="30.89">SE</tspan><tspan class="cls-43" x="30.53" y="30.89">R</tspan><tspan x="47.83" y="30.89">VICE</tspan></text><rect class="cls-42" x="718.36" y="593.48" width="135.17" height="90.68"/><text class="cls-12" transform="translate(734.68 636.44)">PERSON<tspan x="0" y="30.89">SE</tspan><tspan class="cls-43" x="30.53" y="30.89">R</tspan><tspan x="47.83" y="30.89">VICE</tspan></text><text class="cls-39" transform="translate(717.38 274.98) rotate(0.1)">SE<tspan class="cls-43" x="30.53" y="0">R</tspan><tspan x="47.83" y="0">VICE </tspan><tspan class="cls-22" x="0" y="30.89">L</tspan><tspan class="cls-41" x="13.23" y="30.89">A</tspan><tspan x="29.81" y="30.89">YER</tspan></text><rect class="cls-44" x="972.22" y="713.92" width="212.45" height="58.42"/><text class="cls-12" transform="translate(988.54 756.87)"><tspan class="cls-13">C</tspan><tspan x="17.17" y="0">OMMENT</tspan><tspan class="cls-45" x="128.92" y="0">D</tspan><tspan class="cls-46" x="147.35" y="0">A</tspan><tspan class="cls-21" x="165.24" y="0">O</tspan></text><rect class="cls-44" x="971.51" y="339.96" width="192.5" height="58.42"/><text class="cls-12" transform="translate(987.83 382.92)"><tspan class="cls-13">C</tspan><tspan x="17.17" y="0">OURSE</tspan><tspan class="cls-45" x="103.28" y="0">D</tspan><tspan class="cls-46" x="121.71" y="0">A</tspan><tspan class="cls-21" x="139.6" y="0">O</tspan></text><rect class="cls-44" x="972.22" y="408.18" width="221.17" height="58.42"/><text class="cls-12" transform="translate(988.54 451.14)">R<tspan class="cls-13" x="17.56" y="0">E</tspan><tspan x="32.2" y="0">SOU</tspan><tspan class="cls-40" x="85.85" y="0">R</tspan><tspan class="cls-21" x="103.28" y="0">CE</tspan><tspan class="cls-45" x="135.61" y="0">D</tspan><tspan class="cls-15" x="154.04" y="0">A</tspan><tspan x="171.93" y="0">O</tspan></text><rect class="cls-44" x="972.22" y="497.85" width="167.17" height="58.42"/><text class="cls-12" transform="translate(988.54 540.8)"><tspan class="cls-38">E</tspan><tspan x="14.67" y="0">VENT</tspan><tspan class="cls-45" x="81.19" y="0">D</tspan><tspan class="cls-15" x="99.62" y="0">A</tspan><tspan x="117.51" y="0">O</tspan></text><rect class="cls-44" x="972.22" y="595.97" width="191.08" height="58.42"/><text class="cls-12" transform="translate(988.54 638.92)">PERSON<tspan class="cls-45" x="102.92" y="0">D</tspan><tspan class="cls-15" x="121.35" y="0">A</tspan><tspan x="139.24" y="0">O</tspan></text><text class="cls-39" transform="translate(972.24 273.34) rotate(0.1)"><tspan class="cls-45">D</tspan><tspan class="cls-23" x="18.43" y="0">AT</tspan><tspan x="47.98" y="0">A </tspan><tspan class="cls-15" x="73.01" y="0">A</tspan><tspan class="cls-43" x="90.9" y="0">C</tspan><tspan class="cls-21" x="108.07" y="0">C</tspan><tspan class="cls-13" x="125.49" y="0">E</tspan><tspan x="140.14" y="0">SS </tspan><tspan class="cls-22" x="0" y="30.89">L</tspan><tspan class="cls-41" x="13.23" y="30.89">A</tspan><tspan x="29.81" y="30.89">YER</tspan></text><text class="cls-47" transform="translate(128.01 990.68)">APPLI<tspan class="cls-48" x="106.57" y="0">C</tspan><tspan class="cls-8" x="131.31" y="0">A</tspan><tspan class="cls-3" x="155.56" y="0">TION</tspan></text><text class="cls-1" transform="translate(602.33 93.6)"><tspan class="cls-49">B</tspan><tspan class="cls-50" x="25.15" y="0">A</tspan><tspan x="51.72" y="0">CKEND</tspan></text><text class="cls-51" transform="translate(128 1032.68)">L<tspan class="cls-52" x="19.21" y="0">A</tspan><tspan class="cls-3" x="43.27" y="0">YER</tspan></text><text class="cls-53" transform="translate(156.4 891.03) rotate(0.1) scale(1.09 1)">NOD<tspan class="cls-25" x="77.52" y="0">E</tspan><tspan class="cls-54" x="97.93" y="0">.</tspan><tspan class="cls-19" x="107.29" y="0">JS</tspan></text><polygon class="cls-27" points="717.36 369.17 708.24 378.29 707.34 377.38 714.91 369.81 609.47 369.81 609.47 368.53 714.91 368.53 707.34 360.96 708.24 360.06 717.36 369.17"/><line class="cls-55" x1="611.41" y1="389.6" x2="717.36" y2="389.6"/><path class="cls-56" d="M622.44,397.34a.81.81,0,0,0-.25-1.11l-10.41-6.63L622.19,383a.81.81,0,1,0-.87-1.36l-11.47,7.31a.8.8,0,0,0-.38.68.79.79,0,0,0,.38.68l11.47,7.31a.8.8,0,0,0,.43.13A.83.83,0,0,0,622.44,397.34Z"/><polygon class="cls-27" points="717.36 489.06 707.35 499.07 706.35 498.07 714.67 489.76 587.21 489.76 587.21 488.35 714.67 488.35 706.35 480.04 707.35 479.05 717.36 489.06"/><line class="cls-57" x1="589.34" y1="509.48" x2="717.36" y2="509.48"/><path class="cls-56" d="M601.45,518a.88.88,0,0,0-.28-1.22l-11.43-7.29,11.43-7.28a.88.88,0,0,0,.28-1.22.9.9,0,0,0-1.23-.27l-12.6,8a.88.88,0,0,0,0,1.49l12.6,8a.92.92,0,0,0,.48.14A.91.91,0,0,0,601.45,518Z"/><polygon class="cls-27" points="717.36 629.37 708.24 638.48 707.34 637.58 714.91 630.01 609.47 630.01 609.47 628.73 714.91 628.73 707.34 621.16 708.24 620.25 717.36 629.37"/><line class="cls-55" x1="611.41" y1="649.8" x2="717.36" y2="649.8"/><path class="cls-56" d="M622.44,657.54a.81.81,0,0,0-.25-1.11l-10.41-6.63,10.41-6.63a.81.81,0,1,0-.87-1.36l-11.47,7.31a.79.79,0,0,0-.38.68.8.8,0,0,0,.38.68l11.47,7.31a.88.88,0,0,0,.43.12A.82.82,0,0,0,622.44,657.54Z"/><polygon class="cls-27" points="717.36 741.93 709.35 749.94 708.55 749.15 715.2 742.5 634.01 742.5 634.01 741.37 715.2 741.37 708.55 734.72 709.35 733.92 717.36 741.93"/><line class="cls-58" x1="635.72" y1="762.36" x2="717.36" y2="762.36"/><path class="cls-56" d="M645.41,769.17a.71.71,0,0,0-.22-1L636,762.36l9.15-5.82a.71.71,0,0,0-.76-1.2l-10.09,6.42a.71.71,0,0,0,0,1.2l10.09,6.42a.66.66,0,0,0,.38.12A.73.73,0,0,0,645.41,769.17Z"/><polygon class="cls-27" points="971.51 352.84 962.03 362.32 961.09 361.38 968.96 353.5 854.73 353.5 854.73 352.17 968.96 352.17 961.09 344.3 962.03 343.36 971.51 352.84"/><line class="cls-59" x1="856.75" y1="373.27" x2="971.51" y2="373.27"/><path class="cls-56" d="M868.22,381.32a.84.84,0,0,0-.26-1.16l-10.83-6.89,10.83-6.9a.84.84,0,0,0,.26-1.16.85.85,0,0,0-1.16-.26l-11.94,7.61a.83.83,0,0,0,0,1.41l11.94,7.61a.81.81,0,0,0,.45.13A.84.84,0,0,0,868.22,381.32Z"/><polygon class="cls-27" points="971.51 413.4 962.03 422.88 961.09 421.94 968.96 414.06 854.73 414.06 854.73 412.73 968.96 412.73 961.09 404.86 962.03 403.92 971.51 413.4"/><line class="cls-59" x1="856.75" y1="433.83" x2="971.51" y2="433.83"/><path class="cls-56" d="M868.22,441.88a.84.84,0,0,0-.26-1.16l-10.83-6.89,10.83-6.9a.84.84,0,0,0,.26-1.16.85.85,0,0,0-1.16-.26l-11.94,7.61a.84.84,0,0,0-.39.71.87.87,0,0,0,.39.71l11.94,7.6a.81.81,0,0,0,.45.13A.84.84,0,0,0,868.22,441.88Z"/><polygon class="cls-27" points="1286.01 559.74 1279.35 566.4 1278.69 565.74 1284.22 560.21 1277.49 560.21 1228.47 560.21 1228.47 559.28 1277.49 559.28 1284.22 559.28 1278.69 553.75 1279.35 553.09 1286.01 559.74"/><line class="cls-60" x1="1229.89" y1="580.17" x2="1286" y2="580.17"/><path class="cls-56" d="M1237.94,585.83a.61.61,0,0,0-.18-.82l-7.6-4.84,7.6-4.84a.59.59,0,1,0-.64-1l-8.38,5.34a.57.57,0,0,0-.27.49.6.6,0,0,0,.27.5l8.38,5.34a.6.6,0,0,0,.82-.18Z"/><polygon class="cls-27" points="971.51 514.82 962.03 524.3 961.09 523.36 968.96 515.48 854.73 515.48 854.73 514.15 968.96 514.15 961.09 506.27 962.03 505.33 971.51 514.82"/><line class="cls-59" x1="856.75" y1="535.24" x2="971.51" y2="535.24"/><path class="cls-56" d="M868.22,543.3a.84.84,0,0,0-.26-1.16l-10.83-6.9L868,528.35a.84.84,0,0,0,.26-1.16.85.85,0,0,0-1.16-.26l-11.94,7.61a.83.83,0,0,0,0,1.41l11.94,7.61a.81.81,0,0,0,.45.13A.84.84,0,0,0,868.22,543.3Z"/><polygon class="cls-27" points="971.51 633.96 962.03 643.44 961.09 642.5 968.96 634.62 854.73 634.62 854.73 633.29 968.96 633.29 961.09 625.42 962.03 624.48 971.51 633.96"/><line class="cls-59" x1="856.75" y1="654.39" x2="971.51" y2="654.39"/><path class="cls-56" d="M868.22,662.44a.84.84,0,0,0-.26-1.16l-10.83-6.89,10.83-6.9a.84.84,0,0,0,.26-1.16.85.85,0,0,0-1.16-.26l-11.94,7.61a.83.83,0,0,0,0,1.41l11.94,7.61a.81.81,0,0,0,.45.13A.84.84,0,0,0,868.22,662.44Z"/><polygon class="cls-27" points="971.51 736.86 962.78 745.59 961.91 744.72 969.16 737.47 872.47 737.47 872.47 736.24 969.16 736.24 961.91 728.99 962.78 728.12 971.51 736.86"/><line class="cls-61" x1="874.33" y1="757.28" x2="971.51" y2="757.28"/><path class="cls-56" d="M884.89,764.7a.76.76,0,0,0-.24-1.06l-10-6.36,10-6.35a.77.77,0,0,0,.24-1.06.78.78,0,0,0-1.07-.24l-11,7a.76.76,0,0,0-.36.65.77.77,0,0,0,.36.66l11,7a.81.81,0,0,0,.42.12A.78.78,0,0,0,884.89,764.7Z"/><polygon class="cls-27" points="448.53 556.75 442.7 562.58 442.12 562.01 446.96 557.16 441.07 557.16 404.37 557.16 404.37 556.34 441.07 556.34 446.96 556.34 442.12 551.5 442.7 550.92 448.53 556.75"/><line class="cls-62" x1="405.61" y1="582.49" x2="448.53" y2="582.49"/><path class="cls-56" d="M412.67,587.44a.52.52,0,0,0-.16-.71l-6.66-4.24,6.66-4.24a.52.52,0,0,0,.16-.71.53.53,0,0,0-.72-.16l-7.34,4.67a.52.52,0,0,0,0,.88L412,587.6a.5.5,0,0,0,.28.08A.51.51,0,0,0,412.67,587.44Z"/><polygon class="cls-27" points="156.38 556.75 149.23 563.9 148.52 563.19 154.46 557.25 147.23 557.25 90 557.25 90 556.25 147.23 556.25 154.46 556.25 148.52 550.32 149.23 549.61 156.38 556.75"/><line class="cls-63" x1="91.53" y1="582.49" x2="156.38" y2="582.49"/><path class="cls-56" d="M100.17,588.56a.63.63,0,0,0-.19-.87l-8.16-5.2,8.16-5.2a.63.63,0,0,0-.68-1.07l-9,5.74a.62.62,0,0,0,0,1.06l9,5.74a.7.7,0,0,0,.34.1A.63.63,0,0,0,100.17,588.56Z"/></svg>