<svg xmlns="http://www.w3.org/2000/svg" width="148.475" height="50" viewBox="0 0 148.475 50"><defs><style>.a,.b{fill:#fff;}.b{stroke:rgba(0,0,0,0);stroke-miterlimit:10;}</style></defs><g transform="translate(-50.5 -28.5)"><g transform="translate(107.137 44.404)"><path class="a" d="M308.976,739.887a1.711,1.711,0,0,1-.464-1.245V723.09a1.595,1.595,0,0,1,1.7-1.7,1.7,1.7,0,0,1,1.258.464,1.667,1.667,0,0,1,.464,1.232v15.552a1.712,1.712,0,0,1-.464,1.245,1.675,1.675,0,0,1-1.258.477A1.638,1.638,0,0,1,308.976,739.887Z" transform="translate(-308.512 -721.103)"/><path class="a" d="M339.978,739.439a6.011,6.011,0,0,1,1.139,4v6.518a1.547,1.547,0,0,1-.437,1.166,1.66,1.66,0,0,1-1.205.424,1.708,1.708,0,0,1-1.219-.424,1.523,1.523,0,0,1-.45-1.166v-6.332a3.438,3.438,0,0,0-.57-2.2,2.191,2.191,0,0,0-1.788-.689,3.023,3.023,0,0,0-2.292.9,3.345,3.345,0,0,0-.861,2.411v5.908a1.524,1.524,0,0,1-.45,1.166,1.709,1.709,0,0,1-1.219.424,1.661,1.661,0,0,1-1.205-.424,1.55,1.55,0,0,1-.437-1.166V739.7a1.455,1.455,0,0,1,.451-1.112,1.7,1.7,0,0,1,1.218-.424,1.581,1.581,0,0,1,1.126.411,1.407,1.407,0,0,1,.437,1.073v.715a4.48,4.48,0,0,1,1.775-1.669,5.336,5.336,0,0,1,2.517-.583A4.332,4.332,0,0,1,339.978,739.439Z" transform="translate(-322.204 -732.285)"/><path class="a" d="M375.778,739.686a8.472,8.472,0,0,1-2.954-1.47,1.609,1.609,0,0,1-.278-2.239.98.98,0,0,1,.781-.411,2.154,2.154,0,0,1,1.086.371,7.937,7.937,0,0,0,2.385,1.193,9.624,9.624,0,0,0,2.755.37,5.427,5.427,0,0,0,2.967-.675,2.212,2.212,0,0,0,1.034-1.974,1.7,1.7,0,0,0-.967-1.55,12.836,12.836,0,0,0-3.219-1.047,19.01,19.01,0,0,1-3.788-1.166,5.345,5.345,0,0,1-2.2-1.7,4.384,4.384,0,0,1-.742-2.623,4.934,4.934,0,0,1,.928-2.94,6.109,6.109,0,0,1,2.583-2.027,10.246,10.246,0,0,1,9.9,1.285,2,2,0,0,1,.49.57,1.647,1.647,0,0,1-.185,1.669.98.98,0,0,1-.782.411,1.465,1.465,0,0,1-.49-.079,3.894,3.894,0,0,1-.6-.292,8.981,8.981,0,0,0-2.106-1.179,7.141,7.141,0,0,0-2.5-.384,4.912,4.912,0,0,0-2.848.729,2.333,2.333,0,0,0-1.046,2.027,1.859,1.859,0,0,0,.928,1.669,10.851,10.851,0,0,0,3.153,1.086,21.257,21.257,0,0,1,3.828,1.179,5.688,5.688,0,0,1,2.252,1.656,3.985,3.985,0,0,1,.782,2.517,4.806,4.806,0,0,1-.914,2.9,5.954,5.954,0,0,1-2.57,1.961,9.674,9.674,0,0,1-3.8.7A13.384,13.384,0,0,1,375.778,739.686Z" transform="translate(-351.119 -720.888)"/><path class="a" d="M423.111,723.548a1.666,1.666,0,0,1-.53-1.285,1.626,1.626,0,0,1,.53-1.272,2.365,2.365,0,0,1,2.848,0,1.61,1.61,0,0,1,.543,1.272,1.667,1.667,0,0,1-.53,1.285,2.333,2.333,0,0,1-2.861,0Zm.252,15.817a1.492,1.492,0,0,1-.464-1.179V727.959a1.449,1.449,0,0,1,.464-1.165,1.746,1.746,0,0,1,1.179-.4,1.8,1.8,0,0,1,1.192.4,1.43,1.43,0,0,1,.477,1.165v10.227a1.471,1.471,0,0,1-.477,1.179,1.763,1.763,0,0,1-1.192.41A1.712,1.712,0,0,1,423.363,739.365Z" transform="translate(-384.805 -720.514)"/><path class="a" d="M451.685,748.182a1.434,1.434,0,0,1,.278.927,1.607,1.607,0,0,1-.98,1.378,8.853,8.853,0,0,1-2.04.808,8.421,8.421,0,0,1-2.172.3,6.751,6.751,0,0,1-4.954-1.8,6.6,6.6,0,0,1-1.828-4.928,7.559,7.559,0,0,1,.8-3.523,5.777,5.777,0,0,1,2.238-2.385,6.347,6.347,0,0,1,3.272-.848,5.874,5.874,0,0,1,3.047.769,5.212,5.212,0,0,1,2.013,2.172,7.214,7.214,0,0,1,.715,3.312q0,1.14-1.007,1.14h-7.816a4.169,4.169,0,0,0,1.034,2.689,3.477,3.477,0,0,0,2.543.861,4.815,4.815,0,0,0,1.5-.212,14.57,14.57,0,0,0,1.471-.583,2.928,2.928,0,0,1,1.166-.424A.893.893,0,0,1,451.685,748.182Zm-7.472-6.888a4,4,0,0,0-.967,2.437h5.988a3.779,3.779,0,0,0-.794-2.451,2.621,2.621,0,0,0-2.066-.835A2.844,2.844,0,0,0,444.214,741.294Z" transform="translate(-396.447 -732.285)"/><path class="a" d="M501.882,739.372a6.017,6.017,0,0,1,1.126,4.067v6.518a1.492,1.492,0,0,1-.464,1.179,1.751,1.751,0,0,1-1.205.41,1.712,1.712,0,0,1-1.179-.41,1.493,1.493,0,0,1-.464-1.179v-6.518a3.276,3.276,0,0,0-.517-2.08,1.932,1.932,0,0,0-1.576-.623,2.6,2.6,0,0,0-2.067.888,3.578,3.578,0,0,0-.768,2.424v5.908a1.5,1.5,0,0,1-.463,1.179,1.715,1.715,0,0,1-1.179.41,1.763,1.763,0,0,1-1.192-.41,1.47,1.47,0,0,1-.477-1.179v-6.518a3.28,3.28,0,0,0-.517-2.08,1.933,1.933,0,0,0-1.576-.623,2.556,2.556,0,0,0-2.054.888,3.622,3.622,0,0,0-.755,2.424v5.908a1.471,1.471,0,0,1-.477,1.179,1.763,1.763,0,0,1-1.192.41,1.711,1.711,0,0,1-1.179-.41,1.491,1.491,0,0,1-.464-1.179V739.7a1.4,1.4,0,0,1,.477-1.139,1.8,1.8,0,0,1,1.192-.4,1.644,1.644,0,0,1,1.126.384,1.385,1.385,0,0,1,.437,1.1v.636a4.149,4.149,0,0,1,1.629-1.616,4.812,4.812,0,0,1,2.345-.557,3.8,3.8,0,0,1,3.895,2.438,4.377,4.377,0,0,1,1.722-1.775,5.019,5.019,0,0,1,2.57-.662A4.13,4.13,0,0,1,501.882,739.372Z" transform="translate(-425.378 -732.285)"/><path class="a" d="M561.044,748.182a1.433,1.433,0,0,1,.278.927,1.606,1.606,0,0,1-.98,1.378,8.854,8.854,0,0,1-2.04.808,8.422,8.422,0,0,1-2.173.3,6.751,6.751,0,0,1-4.954-1.8,6.6,6.6,0,0,1-1.828-4.928,7.559,7.559,0,0,1,.794-3.523,5.783,5.783,0,0,1,2.239-2.385,6.345,6.345,0,0,1,3.272-.848,5.872,5.872,0,0,1,3.046.769,5.209,5.209,0,0,1,2.014,2.172,7.21,7.21,0,0,1,.715,3.312q0,1.14-1.006,1.14h-7.816a4.169,4.169,0,0,0,1.033,2.689,3.476,3.476,0,0,0,2.543.861,4.821,4.821,0,0,0,1.5-.212,14.639,14.639,0,0,0,1.47-.583,2.928,2.928,0,0,1,1.166-.424A.892.892,0,0,1,561.044,748.182Zm-7.471-6.888a4,4,0,0,0-.967,2.437h5.988a3.783,3.783,0,0,0-.795-2.451,2.622,2.622,0,0,0-2.066-.835A2.843,2.843,0,0,0,553.572,741.294Z" transform="translate(-469.59 -732.285)"/></g><g transform="translate(0 5)"><path class="b" d="M5547.5-8152a24.338,24.338,0,0,1-17.324-7.176A24.338,24.338,0,0,1,5523-8176.5a24.339,24.339,0,0,1,7.176-17.324A24.343,24.343,0,0,1,5547.5-8201a24.343,24.343,0,0,1,17.324,7.176A24.339,24.339,0,0,1,5572-8176.5a24.337,24.337,0,0,1-7.177,17.324A24.337,24.337,0,0,1,5547.5-8152Zm-11.144-22.279a1.891,1.891,0,0,0-1.594.868,1.9,1.9,0,0,0,.57,2.616,24.574,24.574,0,0,0,12.275,3.408,21.442,21.442,0,0,0,11.573-3.4,1.9,1.9,0,0,0,.593-2.61,1.881,1.881,0,0,0-1.6-.885,1.89,1.89,0,0,0-1.008.292,17.638,17.638,0,0,1-9.522,2.8,19.788,19.788,0,0,1-3.986-.418,20.8,20.8,0,0,1-6.278-2.371A1.89,1.89,0,0,0,5536.356-8174.279Zm22.153-8.626a2.808,2.808,0,0,0-2.812,2.8,2.808,2.808,0,0,0,2.812,2.8,2.808,2.808,0,0,0,2.812-2.8A2.808,2.808,0,0,0,5558.51-8182.9Zm-21.817,0a2.808,2.808,0,0,0-2.812,2.8,2.808,2.808,0,0,0,2.812,2.8,2.808,2.808,0,0,0,2.812-2.8A2.808,2.808,0,0,0,5536.693-8182.9Z" transform="translate(-5472 8225)"/></g></g></svg>