<svg xmlns="http://www.w3.org/2000/svg" xmlns:xlink="http://www.w3.org/1999/xlink" width="400" height="290" viewBox="0 0 400 290"><defs><style>.a{fill:#fff;}.b{clip-path:url(#a);}.c{fill:#ffedbd;}.d{fill:#fad1d2;}.e,.l{fill:#004d49;}.f,.k{fill:#71c2ae;}.g{fill:#b2b2b2;}.g,.i{font-size:12px;}.g,.i,.j{font-family:NunitoSans-SemiBold, Nunito Sans;font-weight:600;}.h{letter-spacing:0.03em;}.i,.j{fill:#575756;}.j{font-size:16px;}.k{font-size:43px;}.k,.l,.m,.n{font-family:NunitoSans-Bold, Nunito Sans;font-weight:700;}.l{font-size:26px;}.m{fill:#f2908b;}.m,.n{font-size:31px;}.n{fill:#ffdf8c;}</style><clipPath id="a"><rect class="a" width="400" height="290" transform="translate(195 1317)"/></clipPath></defs><g class="b" transform="translate(-195 -1317)"><g transform="translate(169.179 1278.083)"><path class="c" d="M207.49,205.877,192.15,96.735A116.514,116.514,0,0,1,207.5,95.66Z"/><path class="d" d="M207.49,205.877,97.58,213.555A109.418,109.418,0,0,1,192.15,96.735Z"/><path class="e" d="M207.49,205.877l-58.348,93.434c-30.971-19.347-48.982-49.335-51.531-85.741Z"/><path class="f" d="M207.49,205.877V95.707a110.171,110.171,0,1,1,0,220.342,104.029,104.029,0,0,1-58.348-16.737Z"/><text class="g" transform="translate(199.812 87.092)"><tspan x="0" y="0">Elementa</tspan><tspan class="h" y="0">r</tspan><tspan y="0">y</tspan></text><text class="i" transform="translate(52.836 130.071)"><tspan x="0" y="0">Diploma</tspan></text><text class="i" transform="translate(43.577 296.041)"><tspan x="0" y="0">Middle school</tspan></text><text class="j" transform="translate(318.704 294.505)"><tspan x="0" y="0">Bachelor</tspan></text><text class="k" transform="translate(316.601 273.807)"><tspan x="0" y="0">59%</tspan></text><text class="l" transform="translate(42.041 278.767)"><tspan x="0" y="0">15%</tspan></text><text class="m" transform="translate(51.3 113.457)"><tspan x="0" y="0">24%</tspan></text><text class="n" transform="translate(199.812 69.772)"><tspan x="0" y="0">2%</tspan></text><circle class="a" cx="46.709" cy="46.709" r="46.709" transform="translate(160.78 159.168)"/></g></g></svg>