<svg xmlns="http://www.w3.org/2000/svg" xmlns:xlink="http://www.w3.org/1999/xlink" width="363" height="252" viewBox="0 0 363 252"><defs><style>.a{fill:#fff;}.b{clip-path:url(#a);}.c{fill:#f2908b;}.c,.d{font-size:37px;font-family:NunitoSans-Bold, Nunito Sans;font-weight:700;}.d,.f{fill:#71c2ae;}.e{fill:none;}.g{fill:#fad1d2;}</style><clipPath id="a"><rect class="a" width="363" height="252" transform="translate(771 1317)"/></clipPath></defs><g class="b" transform="translate(-771 -1317)"><g transform="translate(789.447 1317.131)"><text class="c" transform="translate(0 37)"><tspan x="0" y="0">43%</tspan></text><text class="d" transform="translate(243.845 175.505)"><tspan x="0" y="0">57%</tspan></text><path class="e" d="M121.623,105.4h94.61v94.679h-94.61Z" transform="translate(-54.566 -41.9)"/><path class="f" d="M321,304.2V283.44H319.4a3.2,3.2,0,0,1-3.2-3.183v-14.38A6.422,6.422,0,0,1,322.6,259.5h9.605a6.408,6.408,0,0,1,6.38,6.38v14.449a3.2,3.2,0,0,1-3.2,3.183H333.8V304.2a3.211,3.211,0,0,1-3.2,3.2h-6.38A3.211,3.211,0,0,1,321,304.2Z" transform="translate(-72.362 -55.993)"/><circle class="f" cx="6.381" cy="6.381" r="6.381" transform="translate(248.648 187.545)"/><path class="g" d="M66.779,153.294V137.336h5.146a3.211,3.211,0,0,0,3.032-4.213l-6.71-20.157a6.408,6.408,0,0,0-6.065-4.377H61.8a6.381,6.381,0,0,0-6.065,4.377l-6.7,20.157a3.183,3.183,0,0,0,3.032,4.213H57.2v15.958a3.211,3.211,0,0,0,3.2,3.2h3.2a3.2,3.2,0,0,0,3.183-3.2Z" transform="translate(-47.911 -42.191)"/><circle class="g" cx="6.381" cy="6.381" r="6.381" transform="translate(7.698 50.44)"/><path class="g" d="M187.487,186.224l-41.014,89.19c-48.56-23.011-69.6-81.533-46.928-130.752,16.3-35.443,49.4-56.793,87.941-56.793Z" transform="translate(-51.712 -40.296)"/><path class="f" d="M193.129,186.224V87.868c53.514,0,97.011,44.032,97.011,98.356s-43.429,98.342-97.011,98.342a90.809,90.809,0,0,1-41.014-9.207Z" transform="translate(-57.354 -40.296)"/><circle class="a" cx="41.741" cy="41.741" r="41.741" transform="translate(94.034 104.187)"/></g></g></svg>