<svg xmlns="http://www.w3.org/2000/svg" width="49" height="49" viewBox="0 0 49 49"><defs><style>.a{fill:#e6e6e6;}.b{fill:#004c48;}.c{fill:#c40041;}</style></defs><g transform="translate(-51 -24)"><circle class="a" cx="24.5" cy="24.5" r="24.5" transform="translate(51 24)"/><ellipse class="b" cx="2.811" cy="2.798" rx="2.811" ry="2.798" transform="translate(61.881 42.095)"/><ellipse class="c" cx="2.811" cy="2.798" rx="2.811" ry="2.798" transform="translate(83.698 42.095)"/><path class="b" d="M186.756,761.58a24.522,24.522,0,0,1-12.274-3.407,1.892,1.892,0,0,1,2.042-3.187,20.741,20.741,0,0,0,6.281,2.373,17.813,17.813,0,0,0,13.508-2.38,1.892,1.892,0,0,1,2.016,3.2A21.412,21.412,0,0,1,186.756,761.58Z" transform="translate(-111.15 -703.967)"/></g></svg>